<?xml version="1.0" encoding="utf-8" ?>
<svg xmlns="http://www.w3.org/2000/svg" xmlns:xlink="http://www.w3.org/1999/xlink" width="200" height="150">
	<defs>
		<g id="group_0">
			<text font-size="13" font-family="'DejaVu Sans Mono', -apple-system, BlinkMacSystemFont, 'Segoe UI', Roboto, Helvetica, Arial, sans-serif, 'Apple Color Emoji', 'Segoe UI Emoji', 'Segoe UI Symbol'" x="8" y="26.4375">
					 
			</text>
			<path fill="#23A3DD" transform="matrix(0.0334821 0 0 0.0331903 16 13.0033)" d="M439.55 236.05L244 40.45Q243.499 39.9494 242.974 39.4739Q242.449 38.9985 241.901 38.5493Q241.353 38.1002 240.784 37.6785Q240.215 37.2567 239.626 36.8634Q239.037 36.4701 238.43 36.1061Q237.822 35.7422 237.197 35.4085Q236.572 35.0747 235.932 34.7721Q235.292 34.4694 234.637 34.1985Q233.983 33.9276 233.316 33.6891Q232.649 33.4506 231.971 33.2451Q231.293 33.0396 230.606 32.8676Q229.919 32.6955 229.224 32.5574Q228.529 32.4193 227.829 32.3155Q227.128 32.2116 226.423 32.1422Q225.718 32.0728 225.011 32.0381Q224.303 32.0033 223.595 32.0033Q222.887 32.0033 222.179 32.0381Q221.472 32.0728 220.767 32.1422Q220.062 32.2116 219.361 32.3155Q218.661 32.4193 217.966 32.5574Q217.271 32.6955 216.584 32.8676Q215.897 33.0396 215.219 33.2451Q214.541 33.4506 213.874 33.6891Q213.207 33.9275 212.553 34.1985Q211.898 34.4694 211.258 34.772Q210.618 35.0747 209.993 35.4085Q209.368 35.7422 208.761 36.1061Q208.153 36.4701 207.564 36.8634Q206.975 37.2567 206.406 37.6785Q205.837 38.1002 205.289 38.5493Q204.741 38.9985 204.216 39.4739Q203.691 39.9494 203.19 40.45L162.53 81.08L214.05 132.6C241.11 123.46 266.73 149.37 257.44 176.28L307.1 225.94C341.33 214.14 368.28 256.94 342.57 282.63C316.08 309.12 272.36 279.76 286.57 245.29L240.22 199L240.22 320.85C265.52 333.39 262.48 362.7 249.3 375.85Q248.704 376.446 248.079 377.012Q247.455 377.577 246.803 378.112Q246.152 378.646 245.475 379.148Q244.798 379.65 244.097 380.118Q243.396 380.586 242.673 381.019Q241.951 381.452 241.207 381.849Q240.464 382.246 239.702 382.606Q238.94 382.967 238.162 383.289Q237.383 383.611 236.59 383.895Q235.796 384.179 234.99 384.423Q234.183 384.668 233.366 384.873Q232.549 385.077 231.722 385.242Q230.896 385.406 230.062 385.53Q229.228 385.653 228.39 385.736Q227.551 385.818 226.709 385.86Q225.868 385.901 225.025 385.901Q224.182 385.901 223.341 385.86Q222.499 385.818 221.66 385.736Q220.822 385.653 219.988 385.53Q219.155 385.406 218.328 385.242Q217.502 385.077 216.684 384.873Q215.867 384.668 215.06 384.423Q214.254 384.179 213.46 383.895Q212.667 383.611 211.888 383.289Q211.11 382.967 210.348 382.606Q209.586 382.246 208.843 381.849Q208.1 381.452 207.377 381.019Q206.654 380.586 205.953 380.118Q205.252 379.65 204.575 379.148Q203.898 378.646 203.247 378.112Q202.595 377.577 201.971 377.012Q201.346 376.446 200.75 375.85C183.18 358.25 189.68 328.94 212 319.85L212 196.85C191.2 188.34 187.4 166.11 193.36 151.85L142.57 101L8.45 235.14Q7.94915 235.641 7.47348 236.166Q6.99781 236.691 6.54847 237.238Q6.09913 237.786 5.67719 238.355Q5.25526 238.924 4.86175 239.513Q4.46824 240.102 4.1041 240.71Q3.73997 241.317 3.40608 241.942Q3.07219 242.567 2.76935 243.207Q2.46652 243.848 2.19547 244.502Q1.92442 245.157 1.6858 245.824Q1.44718 246.491 1.24158 247.168Q1.03597 247.846 0.863871 248.534Q0.69177 249.221 0.55359 249.915Q0.41541 250.61 0.311482 251.311Q0.207555 252.012 0.13813 252.717Q0.0687059 253.422 0.0339519 254.129Q-0.000802187 254.837 -0.000802187 255.545Q-0.000802187 256.253 0.0339519 256.961Q0.0687059 257.668 0.13813 258.373Q0.207555 259.078 0.311482 259.779Q0.41541 260.48 0.55359 261.175Q0.69177 261.869 0.863871 262.557Q1.03597 263.244 1.24158 263.922Q1.44718 264.599 1.6858 265.266Q1.92442 265.933 2.19547 266.588Q2.46652 267.242 2.76935 267.883Q3.07219 268.523 3.40608 269.148Q3.73996 269.773 4.1041 270.38Q4.46824 270.988 4.86175 271.577Q5.25526 272.166 5.67719 272.735Q6.09913 273.304 6.54847 273.852Q6.99781 274.399 7.47348 274.924Q7.94915 275.449 8.45 275.95L204.06 471.55Q204.561 472.051 205.086 472.526Q205.611 473.001 206.158 473.45Q206.706 473.9 207.275 474.321Q207.844 474.743 208.432 475.136Q209.021 475.53 209.629 475.893Q210.236 476.257 210.861 476.591Q211.486 476.925 212.126 477.227Q212.766 477.53 213.42 477.801Q214.075 478.072 214.741 478.31Q215.408 478.549 216.086 478.754Q216.764 478.96 217.451 479.132Q218.138 479.304 218.832 479.442Q219.527 479.58 220.227 479.684Q220.928 479.788 221.632 479.857Q222.337 479.926 223.045 479.961Q223.752 479.996 224.46 479.996Q225.168 479.996 225.875 479.961Q226.583 479.926 227.288 479.857Q227.992 479.788 228.693 479.684Q229.393 479.58 230.088 479.442Q230.782 479.304 231.469 479.132Q232.156 478.96 232.834 478.754Q233.512 478.549 234.179 478.31Q234.845 478.072 235.5 477.801Q236.154 477.53 236.794 477.227Q237.434 476.925 238.059 476.591Q238.684 476.257 239.291 475.893Q239.899 475.53 240.487 475.136Q241.076 474.743 241.645 474.321Q242.214 473.9 242.762 473.45Q243.309 473.001 243.834 472.526Q244.359 472.051 244.86 471.55L439.55 276.86Q440.051 276.359 440.526 275.834Q441.002 275.309 441.451 274.762Q441.901 274.214 442.323 273.645Q442.745 273.076 443.138 272.487Q443.532 271.898 443.896 271.29Q444.26 270.683 444.594 270.058Q444.928 269.433 445.231 268.793Q445.534 268.152 445.805 267.498Q446.076 266.843 446.314 266.176Q446.553 265.509 446.758 264.832Q446.964 264.154 447.136 263.467Q447.308 262.779 447.446 262.085Q447.585 261.39 447.689 260.689Q447.792 259.988 447.862 259.283Q447.931 258.578 447.966 257.871Q448.001 257.163 448.001 256.455Q448.001 255.747 447.966 255.039Q447.931 254.332 447.862 253.627Q447.792 252.922 447.689 252.221Q447.585 251.52 447.446 250.825Q447.308 250.131 447.136 249.443Q446.964 248.756 446.758 248.078Q446.553 247.401 446.314 246.734Q446.076 246.067 445.805 245.412Q445.534 244.758 445.231 244.117Q444.928 243.477 444.594 242.852Q444.26 242.227 443.896 241.62Q443.532 241.012 443.138 240.423Q442.745 239.834 442.323 239.265Q441.901 238.696 441.451 238.148Q441.002 237.601 440.526 237.076Q440.051 236.551 439.55 236.05L439.55 236.05Z"/>
			<text font-size="13" font-family="'DejaVu Sans Mono', -apple-system, BlinkMacSystemFont, 'Segoe UI', Roboto, Helvetica, Arial, sans-serif, 'Apple Color Emoji', 'Segoe UI Emoji', 'Segoe UI Symbol'" x="30.984375" y="26.4375">
					 
			</text>
			<text fill="#23A3DD" font-size="13" font-weight="600" font-family="'DejaVu Sans Mono', -apple-system, BlinkMacSystemFont, 'Segoe UI', Roboto, Helvetica, Arial, sans-serif, 'Apple Color Emoji', 'Segoe UI Emoji', 'Segoe UI Symbol'" x="38.8125" y="26.4375">
					tree2svg
			</text>
			<text font-size="13" font-family="'DejaVu Sans Mono', -apple-system, BlinkMacSystemFont, 'Segoe UI', Roboto, Helvetica, Arial, sans-serif, 'Apple Color Emoji', 'Segoe UI Emoji', 'Segoe UI Symbol'" x="8" y="42">
					 
			</text>
			<text font-size="13" font-family="'DejaVu Sans Mono', -apple-system, BlinkMacSystemFont, 'Segoe UI', Roboto, Helvetica, Arial, sans-serif, 'Apple Color Emoji', 'Segoe UI Emoji', 'Segoe UI Symbol'" x="15.828125" y="42">
					├─ 
			</text>
			<clipPath id="cl_3">
				<rect x="41" y="31" width="13" height="13"/>
			</clipPath>
			<clipPath id="cl_4" clip-path="url(#cl_3)">
				<rect x="41" y="31" width="13" height="13"/>
			</clipPath>
			<g clip-path="url(#cl_4)">
				<path fill="#269" transform="matrix(0.361111 0 0 0.361111 41 31)" d="M0 29C0 31.209 1.791 33 4 33L28 33C30.209 33 32 31.209 32 29L32 12C32 9.791 30.209 8 28 8L19 8C15.438 8 16 3 10.562 3L4 3C1.791 3 0 4.791 0 7L0 29Z"/>
			</g>
			<g clip-path="url(#cl_4)">
				<path fill="#55ACEE" transform="matrix(0.361111 0 0 0.361111 41 31)" d="M30 10L23.438 10C18 10 18.562 15 15 15L6 15C3.791 15 2 16.791 2 19L2 29C2 29.553 1.552 30 1 30C0.448 30 0 29.553 0 29C0 31.209 1.791 33 4 33L30 33C32.209 33 34 31.209 34 29L34 14C34 11.791 32.209 10 30 10Z"/>
			</g>
			<text font-size="13" font-family="'DejaVu Sans Mono', -apple-system, BlinkMacSystemFont, 'Segoe UI', Roboto, Helvetica, Arial, sans-serif, 'Apple Color Emoji', 'Segoe UI Emoji', 'Segoe UI Symbol'" x="54.25" y="42">
					 
			</text>
			<text fill="#23A3DD" font-size="13" font-weight="600" font-family="'DejaVu Sans Mono', -apple-system, BlinkMacSystemFont, 'Segoe UI', Roboto, Helvetica, Arial, sans-serif, 'Apple Color Emoji', 'Segoe UI Emoji', 'Segoe UI Symbol'" x="62.078125" y="42">
					examples
			</text>
			<text font-size="13" font-family="'DejaVu Sans Mono', -apple-system, BlinkMacSystemFont, 'Segoe UI', Roboto, Helvetica, Arial, sans-serif, 'Apple Color Emoji', 'Segoe UI Emoji', 'Segoe UI Symbol'" x="8" y="57">
					 
			</text>
			<text font-size="13" font-family="'DejaVu Sans Mono', -apple-system, BlinkMacSystemFont, 'Segoe UI', Roboto, Helvetica, Arial, sans-serif, 'Apple Color Emoji', 'Segoe UI Emoji', 'Segoe UI Symbol'" x="15.828125" y="57">
					│  
			</text>
			<text font-size="13" font-family="'DejaVu Sans Mono', -apple-system, BlinkMacSystemFont, 'Segoe UI', Roboto, Helvetica, Arial, sans-serif, 'Apple Color Emoji', 'Segoe UI Emoji', 'Segoe UI Symbol'" x="39.3125" y="57">
					├─ 
			</text>
			<path fill="#FFAF5F" transform="matrix(0.025 0 0 0.0253906 63 46)" d="M278.9 511.5L217.9 493.8C211.5 492 207.9 485.3 209.7 478.9L346.2 8.7C348 2.3 354.7 -1.3 361.1 0.5L422.1 18.2C428.5 20 432.1 26.7 430.3 33.1L293.8 503.3C291.9 509.7 285.3 513.4 278.9 511.5ZM164.9 399.3L208.4 352.9C213 348 212.7 340.2 207.6 335.7L117 256L207.6 176.3C212.7 171.8 213.1 164 208.4 159.1L164.9 112.7C160.4 107.9 152.8 107.6 147.9 112.2L3.8 247.2C-1.3 251.9 -1.3 260 3.8 264.7L147.9 399.8C152.8 404.4 160.4 404.2 164.9 399.3L164.9 399.3ZM492.1 399.9L636.2 264.8C641.3 260.1 641.3 252 636.2 247.3L492.1 112.1C487.3 107.6 479.7 107.8 475.1 112.6L431.6 159C427 163.9 427.3 171.7 432.4 176.2L523 256L432.4 335.7C427.3 340.2 426.9 348 431.6 352.9L475.1 399.3C479.6 404.2 487.2 404.4 492.1 399.9L492.1 399.9Z"/>
			<text font-size="13" font-family="'DejaVu Sans Mono', -apple-system, BlinkMacSystemFont, 'Segoe UI', Roboto, Helvetica, Arial, sans-serif, 'Apple Color Emoji', 'Segoe UI Emoji', 'Segoe UI Symbol'" x="79.046875" y="57">
					 
			</text>
			<text font-size="13" font-weight="600" font-family="'DejaVu Sans Mono', -apple-system, BlinkMacSystemFont, 'Segoe UI', Roboto, Helvetica, Arial, sans-serif, 'Apple Color Emoji', 'Segoe UI Emoji', 'Segoe UI Symbol'" x="86.875" y="57">
					erd2svg.svg
			</text>
			<text font-size="13" font-family="'DejaVu Sans Mono', -apple-system, BlinkMacSystemFont, 'Segoe UI', Roboto, Helvetica, Arial, sans-serif, 'Apple Color Emoji', 'Segoe UI Emoji', 'Segoe UI Symbol'" x="8" y="72">
					 
			</text>
			<text font-size="13" font-family="'DejaVu Sans Mono', -apple-system, BlinkMacSystemFont, 'Segoe UI', Roboto, Helvetica, Arial, sans-serif, 'Apple Color Emoji', 'Segoe UI Emoji', 'Segoe UI Symbol'" x="15.828125" y="72">
					│  
			</text>
			<text font-size="13" font-family="'DejaVu Sans Mono', -apple-system, BlinkMacSystemFont, 'Segoe UI', Roboto, Helvetica, Arial, sans-serif, 'Apple Color Emoji', 'Segoe UI Emoji', 'Segoe UI Symbol'" x="39.3125" y="72">
					└─ 
			</text>
			<path fill="#FFAF5F" transform="matrix(0.025 0 0 0.0253906 63 61)" d="M278.9 511.5L217.9 493.8C211.5 492 207.9 485.3 209.7 478.9L346.2 8.7C348 2.3 354.7 -1.3 361.1 0.5L422.1 18.2C428.5 20 432.1 26.7 430.3 33.1L293.8 503.3C291.9 509.7 285.3 513.4 278.9 511.5ZM164.9 399.3L208.4 352.9C213 348 212.7 340.2 207.6 335.7L117 256L207.6 176.3C212.7 171.8 213.1 164 208.4 159.1L164.9 112.7C160.4 107.9 152.8 107.6 147.9 112.2L3.8 247.2C-1.3 251.9 -1.3 260 3.8 264.7L147.9 399.8C152.8 404.4 160.4 404.2 164.9 399.3L164.9 399.3ZM492.1 399.9L636.2 264.8C641.3 260.1 641.3 252 636.2 247.3L492.1 112.1C487.3 107.6 479.7 107.8 475.1 112.6L431.6 159C427 163.9 427.3 171.7 432.4 176.2L523 256L432.4 335.7C427.3 340.2 426.9 348 431.6 352.9L475.1 399.3C479.6 404.2 487.2 404.4 492.1 399.9L492.1 399.9Z"/>
			<text font-size="13" font-family="'DejaVu Sans Mono', -apple-system, BlinkMacSystemFont, 'Segoe UI', Roboto, Helvetica, Arial, sans-serif, 'Apple Color Emoji', 'Segoe UI Emoji', 'Segoe UI Symbol'" x="79.046875" y="72">
					 
			</text>
			<text font-size="13" font-weight="600" font-family="'DejaVu Sans Mono', -apple-system, BlinkMacSystemFont, 'Segoe UI', Roboto, Helvetica, Arial, sans-serif, 'Apple Color Emoji', 'Segoe UI Emoji', 'Segoe UI Symbol'" x="86.875" y="72">
					tree2svg.svg
			</text>
			<text font-size="13" font-family="'DejaVu Sans Mono', -apple-system, BlinkMacSystemFont, 'Segoe UI', Roboto, Helvetica, Arial, sans-serif, 'Apple Color Emoji', 'Segoe UI Emoji', 'Segoe UI Symbol'" x="8" y="87">
					 
			</text>
			<text font-size="13" font-family="'DejaVu Sans Mono', -apple-system, BlinkMacSystemFont, 'Segoe UI', Roboto, Helvetica, Arial, sans-serif, 'Apple Color Emoji', 'Segoe UI Emoji', 'Segoe UI Symbol'" x="15.828125" y="87">
					├─ 
			</text>
			<path transform="matrix(0.0253906 0 0 0.0253906 39 76)" d="M216.29 158.39L137 158.39C97 147.9 6.51 150.63 6.51 233.18C6.51 263.27 21.51 284.41 41.51 294.18C16.41 317.18 4.51 328.03 4.51 343.39C4.51 354.39 8.98 364.53 22.4 370.2C8.13 383.61 0 393.35 0 411.65C0 443.76 28.05 462.47 101.63 462.47C172.38 462.47 213.42 436.05 213.42 389.29C213.42 330.63 168.26 332.79 61.79 326.29L75.22 304.74C102.49 312.32 193.92 314.74 193.92 236.85C193.92 218.15 186.19 205.14 178.92 195.78L216.33 192.94L216.29 158.39ZM152.87 400.29C152.87 432.35 47.98 432.39 47.98 402.72C47.98 394.58 53.25 387.72 58.55 381.18C136.26 386.48 152.87 384.55 152.87 400.29ZM102.06 265.71C49.26 265.71 51.6 194.55 103.26 194.55C152.8 194.55 154.08 265.71 102.06 265.71ZM235.36 366.22L235.36 334.12C262.11 330.46 262.6 332.12 262.6 323.12L262.6 203.61C262.6 195.11 260.55 196.23 235.36 187.35L239.83 154.43L324 154.43L324 323.14C324 329.65 324.4 330.46 330.51 331.28L351.24 334.12L351.24 366.22L235.36 366.22ZM287.81 121.91C264.64 121.91 251.22 108.48 251.22 85.3C251.22 62.12 264.64 49.53 287.81 49.53C311.39 49.53 324.81 62.15 324.81 85.3C324.81 108.45 311.39 121.91 287.81 121.91ZM512 350.46C494.51 358.99 468.9 366.72 445.72 366.72C397.34 366.72 379.05 347.22 379.05 301.26L379.05 194.75C379.05 189.33 380.1 190.69 347.34 190.69L347.34 154.5C383.12 150.43 397.34 132.5 401.81 88.23L440.44 88.23C440.44 154.06 439.1 150.04 443.7 150.04L501 150.04L501 190.69L440.44 190.69L440.44 287.84C440.44 294.76 435.52 339.25 501.01 314.68L512 350.46Z"/>
			<text font-size="13" font-family="'DejaVu Sans Mono', -apple-system, BlinkMacSystemFont, 'Segoe UI', Roboto, Helvetica, Arial, sans-serif, 'Apple Color Emoji', 'Segoe UI Emoji', 'Segoe UI Symbol'" x="52.3125" y="87">
					 .gitignore
			</text>
			<text font-size="13" font-family="'DejaVu Sans Mono', -apple-system, BlinkMacSystemFont, 'Segoe UI', Roboto, Helvetica, Arial, sans-serif, 'Apple Color Emoji', 'Segoe UI Emoji', 'Segoe UI Symbol'" x="8" y="102">
					 
			</text>
			<text font-size="13" font-family="'DejaVu Sans Mono', -apple-system, BlinkMacSystemFont, 'Segoe UI', Roboto, Helvetica, Arial, sans-serif, 'Apple Color Emoji', 'Segoe UI Emoji', 'Segoe UI Symbol'" x="15.828125" y="102">
					├─ 
			</text>
			<path transform="matrix(0.0253906 0 0 0.0253906 39 91)" d="M512 176.001C512 273.203 433.202 352 336 352C324.78 352 313.81 350.938 303.173 348.931L279.161 375.945Q278.74 376.418 278.295 376.869Q277.85 377.319 277.382 377.746Q276.914 378.172 276.424 378.573Q275.933 378.974 275.423 379.349Q274.912 379.723 274.383 380.071Q273.853 380.418 273.306 380.737Q272.759 381.056 272.196 381.345Q271.632 381.635 271.055 381.894Q270.477 382.153 269.887 382.382Q269.296 382.611 268.694 382.808Q268.092 383.005 267.481 383.17Q266.87 383.335 266.25 383.468Q265.631 383.6 265.006 383.7Q264.381 383.8 263.751 383.867Q263.121 383.933 262.489 383.967Q261.856 384 261.223 384L224 384L224 424C224 437.255 213.255 448 200 448L160 448L160 488C160 501.255 149.255 512 136 512L24 512C10.745 512 0 501.255 0 488L0 409.941C0 403.576 2.529 397.471 7.029 392.97L168.831 231.168C163.108 213.814 160 195.271 160 176C160 78.798 238.797 0.001 335.999 0C433.488 -0.001 512 78.511 512 176.001ZM336 128C336 154.51 357.49 176 384 176C410.51 176 432 154.51 432 128C432 101.49 410.51 80 384 80C357.49 80 336 101.49 336 128Z"/>
			<text font-size="13" font-family="'DejaVu Sans Mono', -apple-system, BlinkMacSystemFont, 'Segoe UI', Roboto, Helvetica, Arial, sans-serif, 'Apple Color Emoji', 'Segoe UI Emoji', 'Segoe UI Symbol'" x="52.3125" y="102">
					 LICENSE
			</text>
			<text font-size="13" font-family="'DejaVu Sans Mono', -apple-system, BlinkMacSystemFont, 'Segoe UI', Roboto, Helvetica, Arial, sans-serif, 'Apple Color Emoji', 'Segoe UI Emoji', 'Segoe UI Symbol'" x="8" y="117">
					 
			</text>
			<text font-size="13" font-family="'DejaVu Sans Mono', -apple-system, BlinkMacSystemFont, 'Segoe UI', Roboto, Helvetica, Arial, sans-serif, 'Apple Color Emoji', 'Segoe UI Emoji', 'Segoe UI Symbol'" x="15.828125" y="117">
					├─ 
			</text>
			<path fill="gray" transform="matrix(0.0265625 0 0 0.0253906 39 106)" d="M593.8 59.1L46.2 59.1C20.7 59.1 0 79.8 0 105.2L0 406.7C0 432.2 20.7 452.9 46.2 452.9L593.9 452.9C619.4 452.9 640.1 432.2 640 406.8L640 105.2C640 79.8 619.3 59.1 593.8 59.1ZM338.5 360.6L277 360.6L277 240.6L215.5 317.5L154 240.6L154 360.6L92.3 360.6L92.3 151.4L153.8 151.4L215.3 228.3L276.8 151.4L338.3 151.4L338.3 360.6L338.5 360.6ZM473.8 363.7L381.5 256L443 256L443 151.4L504.5 151.4L504.5 256L566 256L473.8 363.7Z"/>
			<text font-size="13" font-family="'DejaVu Sans Mono', -apple-system, BlinkMacSystemFont, 'Segoe UI', Roboto, Helvetica, Arial, sans-serif, 'Apple Color Emoji', 'Segoe UI Emoji', 'Segoe UI Symbol'" x="55.5625" y="117">
					 README.md
			</text>
			<text font-size="13" font-family="'DejaVu Sans Mono', -apple-system, BlinkMacSystemFont, 'Segoe UI', Roboto, Helvetica, Arial, sans-serif, 'Apple Color Emoji', 'Segoe UI Emoji', 'Segoe UI Symbol'" x="8" y="132">
					 
			</text>
			<text font-size="13" font-family="'DejaVu Sans Mono', -apple-system, BlinkMacSystemFont, 'Segoe UI', Roboto, Helvetica, Arial, sans-serif, 'Apple Color Emoji', 'Segoe UI Emoji', 'Segoe UI Symbol'" x="15.828125" y="132">
					├─ 
			</text>
			<path fill="#5F5F5F" transform="matrix(0.0265625 0 0 0.0253906 39 121)" d="M257.981 272.971L63.638 467.314C54.265 476.687 39.069 476.687 29.697 467.314L7.029 444.647C-2.328 435.29 -2.346 420.125 6.989 410.746L161.011 256L6.99 101.255C-2.345 91.876 -2.327 76.711 7.03 67.354L29.697 44.687C39.07 35.314 54.266 35.314 63.638 44.687L257.981 239.03C267.354 248.402 267.354 263.598 257.981 272.971ZM640 456L640 424C640 410.745 629.255 400 616 400L312 400C298.745 400 288 410.745 288 424L288 456C288 469.255 298.745 480 312 480L616 480C629.255 480 640 469.255 640 456Z"/>
			<text font-size="13" font-family="'DejaVu Sans Mono', -apple-system, BlinkMacSystemFont, 'Segoe UI', Roboto, Helvetica, Arial, sans-serif, 'Apple Color Emoji', 'Segoe UI Emoji', 'Segoe UI Symbol'" x="55.5625" y="132">
					 
			</text>
			<text fill="green" font-size="13" font-weight="600" font-family="'DejaVu Sans Mono', -apple-system, BlinkMacSystemFont, 'Segoe UI', Roboto, Helvetica, Arial, sans-serif, 'Apple Color Emoji', 'Segoe UI Emoji', 'Segoe UI Symbol'" x="63.390625" y="132">
					erd2svg.sh
			</text>
			<text font-size="13" font-family="'DejaVu Sans Mono', -apple-system, BlinkMacSystemFont, 'Segoe UI', Roboto, Helvetica, Arial, sans-serif, 'Apple Color Emoji', 'Segoe UI Emoji', 'Segoe UI Symbol'" x="8" y="147">
					 
			</text>
			<text font-size="13" font-family="'DejaVu Sans Mono', -apple-system, BlinkMacSystemFont, 'Segoe UI', Roboto, Helvetica, Arial, sans-serif, 'Apple Color Emoji', 'Segoe UI Emoji', 'Segoe UI Symbol'" x="15.828125" y="147">
					└─ 
			</text>
			<path fill="#5F5F5F" transform="matrix(0.0265625 0 0 0.0253906 39 136)" d="M257.981 272.971L63.638 467.314C54.265 476.687 39.069 476.687 29.697 467.314L7.029 444.647C-2.328 435.29 -2.346 420.125 6.989 410.746L161.011 256L6.99 101.255C-2.345 91.876 -2.327 76.711 7.03 67.354L29.697 44.687C39.07 35.314 54.266 35.314 63.638 44.687L257.981 239.03C267.354 248.402 267.354 263.598 257.981 272.971ZM640 456L640 424C640 410.745 629.255 400 616 400L312 400C298.745 400 288 410.745 288 424L288 456C288 469.255 298.745 480 312 480L616 480C629.255 480 640 469.255 640 456Z"/>
			<text font-size="13" font-family="'DejaVu Sans Mono', -apple-system, BlinkMacSystemFont, 'Segoe UI', Roboto, Helvetica, Arial, sans-serif, 'Apple Color Emoji', 'Segoe UI Emoji', 'Segoe UI Symbol'" x="55.5625" y="147">
					 
			</text>
			<text fill="green" font-size="13" font-weight="600" font-family="'DejaVu Sans Mono', -apple-system, BlinkMacSystemFont, 'Segoe UI', Roboto, Helvetica, Arial, sans-serif, 'Apple Color Emoji', 'Segoe UI Emoji', 'Segoe UI Symbol'" x="63.390625" y="147">
					tree2svg.sh
			</text>
		</g>
	</defs>
	<use href="#group_0"/>
</svg>
